<?xml version="1.0" standalone="no"?>
<!DOCTYPE svg PUBLIC "-//W3C//DTD SVG 20010904//EN"
 "http://www.w3.org/TR/2001/REC-SVG-20010904/DTD/svg10.dtd">
<svg version="1.0" xmlns="http://www.w3.org/2000/svg"
 width="200.000000pt" height="200.000000pt" viewBox="0 0 200.000000 200.000000"
 preserveAspectRatio="xMidYMid meet">

<g transform="translate(0.000000,200.000000) scale(0.100000,-0.100000)"
fill="#000000" stroke="none">
<path d="M0 1000 l0 -1000 1000 0 1000 0 0 1000 0 1000 -1000 0 -1000 0 0
-1000z m977 449 c45 -55 62 -69 78 -65 11 3 57 9 103 12 79 7 82 6 82 -14 0
-12 -16 -47 -35 -79 -19 -32 -35 -64 -35 -70 0 -7 -1 -13 -2 -13 -2 0 -86 -18
-188 -39 l-185 -39 -63 35 c-65 36 -82 57 -65 74 6 6 52 27 103 48 51 21 87
40 81 42 -9 3 -8 24 4 79 20 98 21 100 44 100 12 0 42 -27 78 -71z m221 -344
c23 -48 28 -80 13 -89 -5 -3 -43 1 -85 10 -95 19 -125 11 -186 -51 -50 -51
-87 -59 -94 -22 -3 12 -8 47 -11 77 -3 30 -13 65 -21 78 -19 29 -14 31 116 35
58 1 137 4 176 5 l70 2 22 -45z m2 -391 l0 -165 -37 3 -38 3 -3 157 c-3 170
-5 164 56 167 22 1 22 1 22 -165z m121 156 c23 -13 25 -52 4 -70 -8 -7 -25
-10 -39 -6 -33 8 -43 42 -20 67 20 22 28 23 55 9z m-681 -55 l0 -35 -65 0
c-58 0 -65 -2 -65 -19 0 -20 32 -37 50 -26 6 4 24 4 40 0 25 -5 30 -12 30 -36
0 -29 0 -29 -60 -29 l-60 0 0 -60 0 -60 -40 0 -40 0 0 150 0 150 105 0 105 0
0 -35z m188 -58 c21 -20 22 -28 20 -112 l-3 -90 -74 -3 c-94 -4 -121 11 -121
67 0 47 24 71 79 78 23 3 41 10 41 16 0 6 -19 8 -50 4 l-50 -6 0 34 c0 32 2
34 38 37 56 6 95 -3 120 -25z m134 -36 c10 -30 19 -56 22 -58 2 -2 13 22 23
54 19 57 20 58 61 61 l41 3 -19 -56 c-10 -30 -31 -82 -46 -115 -25 -55 -29
-60 -59 -60 -30 0 -34 5 -59 60 -15 33 -36 85 -46 115 l-19 56 42 -3 c41 -3
42 -4 59 -57z m378 -56 l0 -115 -40 0 -40 0 0 115 0 115 40 0 40 0 0 -115z
m105 63 c10 -29 21 -57 25 -61 4 -4 15 19 24 52 l17 61 40 0 c21 0 39 -1 39
-3 0 -14 -54 -159 -80 -211 -34 -73 -54 -89 -113 -88 -48 1 -51 3 -43 39 6 26
11 29 35 25 16 -2 32 1 36 8 4 6 -9 48 -28 93 -20 45 -39 94 -42 110 -7 26 -6
27 33 27 40 0 41 -1 57 -52z"/>
<path d="M906 1405 c-9 -36 3 -57 28 -49 31 9 31 10 3 43 l-25 30 -6 -24z"/>
<path d="M878 1343 c7 -3 16 -2 19 1 4 3 -2 6 -13 5 -11 0 -14 -3 -6 -6z"/>
<path d="M727 634 c-11 -12 3 -24 29 -24 15 0 24 6 24 15 0 15 -40 21 -53 9z"/>
</g>
</svg>
